inDegrees=yes
name=ik_S40_A05_T01
DataType=double
version=3
OpenSimVersion=4.3-2021-08-27-4bc7ad9
endheader
time	pelvis_tilt	pelvis_list	pelvis_rotation	pelvis_tx	pelvis_ty	pelvis_tz	hip_flexion_r	hip_adduction_r	hip_rotation_r	knee_angle_r	knee_angle_r_beta	ankle_angle_r	subtalar_angle_r	mtp_angle_r	hip_flexion_l	hip_adduction_l	hip_rotation_l	knee_angle_l	knee_angle_l_beta	ankle_angle_l	subtalar_angle_l	mtp_angle_l	lumbar_extension	lumbar_bending	lumbar_rotation	arm_flex_r	arm_add_r	arm_rot_r	elbow_flex_r	pro_sup_r	wrist_flex_r	wrist_dev_r	arm_flex_l	arm_add_l	arm_rot_l	elbow_flex_l	pro_sup_l	wrist_flex_l	wrist_dev_l
0	0	0	0	0	0.9399999999999999	0	0	0	0	0	0	0	0	0	0	0	0	0	0	0	0	0	0	0	0	0	0	0	0	89.99999999963507	0	0	0	0	0	0	89.99999999869995	0	0
0.02	-11.34201983670907	0.2309019672388338	31.68297423613781	0	0.9399999999999999	0	2.919370379636224	-1.388734875159223	-0.984301377844032	4.49159717919405	0.07839315945022592	0	0	0	2.919370379636224	-1.388734875159223	-0.984301377844032	4.49159717919405	0.07839315945022592	0	0	0	-3.307112474482362	-4.009775201091521	7.993101080383594	20.52154627317056	-5.397089729123676	-2.670062817645301	59.80051174555494	160.1002194820649	0	0	21.37299913818542	-4.507251072226573	-7.566063585478885	50.43620730704045	139.0333286197088	0	0
0.04	-11.26511462272591	0.1967377568376616	31.74297057632588	0	0.9399999999999999	0	3.759282561512119	-1.747478706077747	-1.281896246888431	5.177049528310154	0.09035655980783158	0	0	0	3.759282561512119	-1.747478706077747	-1.281896246888431	5.177049528310154	0.09035655980783158	0	0	0	-3.344715083082354	-3.942594575622885	7.937085946674999	20.52791702488517	-5.393420084194412	-2.672006312823836	59.80192188746273	160.0997717761215	0	0	21.36326252499025	-4.499129150077906	-7.538065573838209	50.45525875691942	138.9921726825185	0	0
0.06	-11.07787607963405	0.1012116591286897	31.91975672989939	0	0.9399999999999999	0	5.544434053807628	-2.390539225418628	-1.900033928176951	6.275312458130219	0.1095248639857911	0	0	0	5.544434053807628	-2.390539225418628	-1.900033928176951	6.275312458130219	0.1095248639857911	0	0	0	-3.475684876415817	-3.755962425793709	7.776473653673686	20.53667239934464	-5.400468988079341	-2.668402053231942	59.80939739819031	160.0868905102244	0	0	21.37030663971798	-4.486569171072481	-7.545677350110231	50.46138460863202	139.0006953398737	0	0
0.08	-11.04234996463353	0.08937729636040813	31.9564663636453	0	0.9399999999999999	0	5.826365536489122	-2.513948685064658	-2.000262847222912	6.51872922986191	0.1137732881070846	0	0	0	5.826365536489122	-2.513948685064658	-2.000262847222912	6.51872922986191	0.1137732881070846	0	0	0	-3.484233297497231	-3.732652721895396	7.741603626712741	20.51389500835595	-5.394080359280953	-2.680225530280877	59.80499759735386	160.0799170412761	0	0	21.36861295755155	-4.487097559070855	-7.5965971987376	50.44497527755752	139.0377615290834	0	0
0.1	-10.78972228338379	-0.02405418157357808	32.23170829479177	0	0.9399999999999999	0	8.355487516499847	-3.520175389677197	-2.858209959605486	8.460548934128381	0.1476644354266371	0	0	0	8.355487516499847	-3.520175389677197	-2.858209959605486	8.460548934128381	0.1476644354266371	0	0	0	-3.654537232220121	-3.492977315738444	7.486862518693934	20.51954517836146	-5.388743704912059	-2.670498991177348	59.81127210337505	160.1005142800398	0	0	21.36652490404481	-4.487831918216247	-7.586114047175037	50.4637571955729	138.9861908412159	0	0
0.12	-10.76169610505142	-0.04138971571006973	32.25301512567642	0	0.9399999999999999	0	8.550449764595383	-3.597551636899543	-2.92416215500065	8.627341439489566	0.1505755138128401	0	0	0	8.550449764595383	-3.597551636899543	-2.92416215500065	8.627341439489566	0.1505755138128401	0	0	0	-3.66329971906852	-3.485385967513249	7.470743254528792	20.51100114773219	-5.357999821547571	-2.679565659517356	59.8010103592559	160.1099714244056	0	0	21.3825555706351	-4.478235506976918	-7.58140676638254	50.4358524254101	139.0015922017479	0	0
0.14	-10.38138494252977	-0.2460549194104541	32.68387061568129	0	0.9399999999999999	0	12.95641002759533	-5.200236031975765	-4.329502788934698	13.0611009272784	0.2279592151162926	0	0	0	12.95641002759533	-5.200236031975765	-4.329502788934698	13.0611009272784	0.2279592151162926	0	0	0	-3.917579329465777	-3.076823787377456	7.049141642829255	20.51857530761622	-5.366705545690901	-2.653913653030957	59.82933398805084	160.1674797895954	0	0	21.38127840818521	-4.474505225095736	-7.586865122476821	50.45147349210435	138.9660599564547	0	0
0.16	-10.37045818638813	-0.2588526538020281	32.70999077404295	0	0.9399999999999999	0	13.1187882633981	-5.256359061043875	-4.378903935007775	13.23562625823795	0.2310052567696694	0	0	0	13.1187882633981	-5.256359061043875	-4.378903935007775	13.23562625823795	0.2310052567696694	0	0	0	-3.932692365066925	-3.064046939534452	7.027542239450518	20.52988296348671	-5.397018543001384	-2.648359492465604	59.84819572587945	160.0057134874758	0	0	21.39045354978257	-4.503228861690489	-7.565336687325036	50.50827848550714	138.848358923092	0	0
0.18	-10.36378296038299	-0.260062373133552	32.70993110527756	0	0.9399999999999999	0	13.13236462019093	-5.26263334005448	-4.383546138043017	13.25087946819731	0.2312714755049583	0	0	0	13.13236462019093	-5.26263334005448	-4.383546138043017	13.25087946819731	0.2312714755049583	0	0	0	-3.928905538227216	-3.066271766361654	7.021901425002487	20.5123298802461	-5.385378394710746	-2.642766423670043	59.82268265948436	160.1024019718207	0	0	21.38667332889998	-4.491414343044134	-7.585545021704866	50.45960961278035	138.9281782762987	0	0
0.2	-10.29979835034113	-0.3003411353588635	32.74815223200228	0	0.9399999999999999	0	13.92917244272904	-5.532980986059836	-4.623371428593781	14.11763478871246	0.2463992096571265	0	0	0	13.92917244272904	-5.532980986059836	-4.623371428593781	14.11763478871246	0.2463992096571265	0	0	0	-3.97597842765081	-2.997783940357696	6.984737061687818	20.52614001027907	-5.414233370085729	-2.629978180640765	59.85439242848562	159.9668809625993	0	0	21.40865218143686	-4.511463470250479	-7.557839431599033	50.4966843348271	138.8125387744234	0	0
0.22	-10.28895373102795	-0.3000963324037088	32.75528926362972	0	0.9399999999999999	0	13.93719701484588	-5.535410452316238	-4.625726130907884	14.12537046661661	0.2465342227064276	0	0	0	13.93719701484588	-5.535410452316238	-4.625726130907884	14.12537046661661	0.2465342227064276	0	0	0	-3.967409263465391	-3.002813011842316	6.995384198429255	20.52004556534495	-5.383858030916298	-2.656833945206973	59.81458054047863	160.153941962326	0	0	21.39058569425491	-4.480373687976134	-7.533799356063024	50.43740043689962	138.927732488816	0	0
0.24	-10.28073718407973	-0.3116358117079975	32.76595706083935	0	0.9399999999999999	0	14.08886070371809	-5.58035244636964	-4.669724805597912	14.2702409726692	0.2490626900260758	0	0	0	14.08886070371809	-5.58035244636964	-4.669724805597912	14.2702409726692	0.2490626900260758	0	0	0	-3.9854950883145	-2.985824933040634	6.979501642029044	20.5197579178824	-5.391378699999081	-2.652395475485198	59.85520601058036	160.1766738308675	0	0	21.39016832970663	-4.482922614606125	-7.503697096398651	50.5046550799426	138.8193190379792	0	0
0.26	-10.26279917909854	-0.3250278230889818	32.78754714892631	0	0.9399999999999999	0	14.18900336351995	-5.611593219040103	-4.698962069680385	14.37082973587509	0.2508182951345273	0	0	0	14.18900336351995	-5.611593219040103	-4.698962069680385	14.37082973587509	0.2508182951345273	0	0	0	-3.989887501605667	-2.987205898349867	6.971488391493548	20.51418903514214	-5.393387644705239	-2.660767803631336	59.82811547026053	160.093926983517	0	0	21.39403862942009	-4.491031627725579	-7.486827533913116	50.45232970092596	138.8706731630163	0	0
0.28	-10.27334004731489	-0.3273348485204979	32.78594404090136	0	0.9399999999999999	0	14.22912690016399	-5.627396240936944	-4.711809788448059	14.41438732487963	0.251578518476887	0	0	0	14.22912690016399	-5.627396240936944	-4.711809788448059	14.41438732487963	0.251578518476887	0	0	0	-4.004381704465927	-2.975640098771515	6.958302105170001	20.54016130837895	-5.42159042316725	-2.61811640281157	59.83069706884135	160.1093213941687	0	0	21.4081982768011	-4.483627721623463	-7.50948232466333	50.46141158165145	138.8669772106374	0	0
0.3	-10.27630110515437	-0.3307985598070599	32.79170645453187	0	0.9399999999999999	0	14.23306360688223	-5.641050890453303	-4.717440151388507	14.42804125433251	0.2518168245016749	0	0	0	14.23306360688223	-5.641050890453303	-4.717440151388507	14.42804125433251	0.2518168245016749	0	0	0	-4.007050159940943	-2.979727984370675	6.961197521136861	20.54119967030011	-5.421586226285391	-2.604684203052611	59.82267248214349	160.0743930798832	0	0	21.39341506808579	-4.479700227718958	-7.491697964941115	50.45042118764898	138.879798160553	0	0
0.32	-10.27387092388954	-0.3405402996854515	32.79669649476978	0	0.9399999999999999	0	14.32036500815825	-5.666750136748404	-4.742506031997504	14.51298729544675	0.2532994126056529	0	0	0	14.32036500815825	-5.666750136748404	-4.742506031997504	14.51298729544675	0.2532994126056529	0	0	0	-4.021263995813078	-2.970820569220892	6.944814140372976	20.53746693245119	-5.440731602757793	-2.567956144919621	59.86413578382492	160.0930696222719	0	0	21.39754328130586	-4.488337314439429	-7.474336924521457	50.49570791490625	138.8034153721277	0	0
0.34	-10.27563975388111	-0.3447194635138199	32.79416054241586	0	0.9399999999999999	0	14.30699408944727	-5.668505459247305	-4.740616828231342	14.50389308644409	0.2531406887156919	0	0	0	14.30699408944727	-5.668505459247305	-4.740616828231342	14.50389308644409	0.2531406887156919	0	0	0	-4.022508692906498	-2.977200609042794	6.944061233485779	20.52525586782778	-5.427628302101017	-2.546871122109906	59.8582456052399	160.0999512932138	0	0	21.39819993315619	-4.485108823208463	-7.474678303778886	50.47474963258823	138.831880329501	0	0
0.36	-10.2561062012479	-0.3551422573313415	32.82407053776852	0	0.9399999999999999	0	14.43097378045517	-5.705003021584292	-4.776433283608142	14.62399250816692	0.2552368190544964	0	0	0	14.43097378045517	-5.705003021584292	-4.776433283608142	14.62399250816692	0.2552368190544964	0	0	0	-4.026557653040357	-2.971493178846165	6.930262554540144	20.52100489584023	-5.424341947462837	-2.569768649727142	59.88123639447188	160.1235761662638	0	0	21.39688423425364	-4.511376585991818	-7.457783470007855	50.48690157722409	138.7724942272291	0	0
